<svg width="136" height="130" viewBox="0 0 136 130" fill="none" xmlns="http://www.w3.org/2000/svg">
<g filter="url(#filter0_i_1_7)">
<circle cx="73.5" cy="67.5" r="62.5" fill="#48B0D3"/>
</g>
<g filter="url(#filter1_d_1_7)">
<path d="M30.56 38.2L46.24 66.44L62.08 38.2H71.92L50.72 74.68V95H41.76V74.52L20.72 38.2H30.56ZM98.5063 95.4C94.7729 95.4 91.2796 94.6267 88.0263 93.08C84.7729 91.5333 81.9196 89.4 79.4662 86.68C77.0663 83.96 75.1729 80.8667 73.7863 77.4C72.4529 73.9333 71.7863 70.2533 71.7863 66.36C71.7863 62.4667 72.4529 58.8133 73.7863 55.4C75.1729 51.9867 77.0663 48.9467 79.4662 46.28C81.9196 43.6133 84.7729 41.5333 88.0263 40.04C91.3329 38.5467 94.9329 37.8 98.8263 37.8C104.213 37.8 108.746 38.9467 112.426 41.24C116.16 43.48 118.96 46.4667 120.826 50.2L113.946 55.16C112.453 52.0667 110.32 49.7467 107.546 48.2C104.826 46.6533 101.84 45.88 98.5863 45.88C95.9196 45.88 93.4929 46.44 91.3063 47.56C89.1196 48.68 87.2263 50.2267 85.6263 52.2C84.0796 54.12 82.9063 56.3333 82.1063 58.84C81.3063 61.2933 80.9063 63.88 80.9063 66.6C80.9063 69.48 81.3596 72.1733 82.2663 74.68C83.1729 77.1867 84.4529 79.4 86.1063 81.32C87.7596 83.1867 89.7063 84.6533 91.9463 85.72C94.1863 86.7867 96.6129 87.32 99.2263 87.32C102.32 87.32 105.253 86.5467 108.026 85C110.853 83.4 113.493 81.0267 115.946 77.88V87C110.986 92.6 105.173 95.4 98.5063 95.4ZM115.066 72.92H103.146V66.28H122.586V95H115.066V72.92Z" fill="white"/>
</g>
<defs>
<filter id="filter0_i_1_7" x="11" y="5" width="125" height="129" filterUnits="userSpaceOnUse" color-interpolation-filters="sRGB">
<feFlood flood-opacity="0" result="BackgroundImageFix"/>
<feBlend mode="normal" in="SourceGraphic" in2="BackgroundImageFix" result="shape"/>
<feColorMatrix in="SourceAlpha" type="matrix" values="0 0 0 0 0 0 0 0 0 0 0 0 0 0 0 0 0 0 127 0" result="hardAlpha"/>
<feOffset dy="4"/>
<feGaussianBlur stdDeviation="2"/>
<feComposite in2="hardAlpha" operator="arithmetic" k2="-1" k3="1"/>
<feColorMatrix type="matrix" values="0 0 0 0 0 0 0 0 0 0 0 0 0 0 0 0 0 0 0.25 0"/>
<feBlend mode="normal" in2="shape" result="effect1_innerShadow_1_7"/>
</filter>
<filter id="filter1_d_1_7" x="16.72" y="37.8" width="109.866" height="65.6" filterUnits="userSpaceOnUse" color-interpolation-filters="sRGB">
<feFlood flood-opacity="0" result="BackgroundImageFix"/>
<feColorMatrix in="SourceAlpha" type="matrix" values="0 0 0 0 0 0 0 0 0 0 0 0 0 0 0 0 0 0 127 0" result="hardAlpha"/>
<feOffset dy="4"/>
<feGaussianBlur stdDeviation="2"/>
<feComposite in2="hardAlpha" operator="out"/>
<feColorMatrix type="matrix" values="0 0 0 0 0 0 0 0 0 0 0 0 0 0 0 0 0 0 0.25 0"/>
<feBlend mode="normal" in2="BackgroundImageFix" result="effect1_dropShadow_1_7"/>
<feBlend mode="normal" in="SourceGraphic" in2="effect1_dropShadow_1_7" result="shape"/>
</filter>
</defs>
</svg>
